<svg width="19" height="38" viewBox="0 0 19 38" fill="none" xmlns="http://www.w3.org/2000/svg">
<path d="M15.7275 37.0833C15.3415 37.0846 14.9602 36.9995 14.6115 36.8341C14.2628 36.6687 13.9556 36.4272 13.7125 36.1275L1.23496 20.6275C0.854994 20.1653 0.647278 19.5854 0.647278 18.9871C0.647278 18.3887 0.854994 17.8089 1.23496 17.3467L14.1516 1.84667C14.5901 1.31911 15.2202 0.987344 15.9033 0.924363C16.5864 0.861383 17.2666 1.07234 17.7941 1.51083C18.3217 1.94932 18.6534 2.57943 18.7164 3.26253C18.7794 3.94563 18.5684 4.62577 18.13 5.15333L6.58245 19L17.7425 32.8467C18.0584 33.2259 18.259 33.6876 18.3207 34.1773C18.3824 34.6669 18.3025 35.164 18.0905 35.6097C17.8786 36.0554 17.5434 36.4311 17.1246 36.6922C16.7058 36.9534 16.221 37.0891 15.7275 37.0833Z" fill="white"/>
</svg>
