<svg width="30" height="25" viewBox="0 0 30 25" fill="none" xmlns="http://www.w3.org/2000/svg">
<path d="M28 11.5C26.0109 11.5 24.1032 10.7098 22.6967 9.3033C21.2902 7.89677 20.5 5.98912 20.5 4H7.20999L6.75999 2.57C6.71056 2.41645 6.62472 2.27715 6.50979 2.16396C6.39487 2.05078 6.25427 1.96708 6.09999 1.92L1.99999 0.659996C1.87392 0.621256 1.74145 0.607726 1.61016 0.620179C1.47886 0.632633 1.3513 0.670825 1.23476 0.732576C0.999404 0.857288 0.823227 1.07039 0.744988 1.325C0.666749 1.5796 0.692858 1.85486 0.817569 2.09022C0.942281 2.32558 1.15538 2.50176 1.40999 2.58L4.99999 3.68L9.57999 18.15L7.94999 19.49L7.81999 19.62C7.41689 20.0868 7.1885 20.6791 7.17391 21.2957C7.15932 21.9122 7.35942 22.5147 7.73999 23C8.01255 23.3315 8.3589 23.5945 8.75133 23.7682C9.14376 23.9418 9.57138 24.0212 9.99999 24H26.69C26.9552 24 27.2096 23.8946 27.3971 23.7071C27.5846 23.5196 27.69 23.2652 27.69 23C27.69 22.7348 27.5846 22.4804 27.3971 22.2929C27.2096 22.1054 26.9552 22 26.69 22H9.83999C9.72484 21.9961 9.61264 21.9625 9.51425 21.9025C9.41585 21.8426 9.33458 21.7583 9.27828 21.6578C9.22199 21.5572 9.19257 21.4439 9.19286 21.3286C9.19316 21.2134 9.22317 21.1002 9.27999 21L11.69 19H27.12C27.3484 19.0067 27.5722 18.9349 27.7542 18.7966C27.9361 18.6583 28.0652 18.4619 28.12 18.24L29.83 11.24C29.2331 11.4019 28.6184 11.4892 28 11.5Z" fill="black"/>
</svg>
