<svg width="19" height="38" viewBox="0 0 19 38" fill="none" xmlns="http://www.w3.org/2000/svg">
<path d="M3.27254 37.0833C3.65848 37.0846 4.03981 36.9995 4.3885 36.8341C4.7372 36.6687 5.0444 36.4272 5.28754 36.1275L17.765 20.6275C18.145 20.1653 18.3527 19.5854 18.3527 18.9871C18.3527 18.3887 18.145 17.8089 17.765 17.3467L4.84838 1.84667C4.40989 1.31911 3.77978 0.987344 3.09668 0.924363C2.41358 0.861383 1.73344 1.07234 1.20588 1.51083C0.678318 1.94932 0.346556 2.57943 0.283575 3.26253C0.220594 3.94563 0.431553 4.62577 0.870043 5.15333L12.4175 19L1.25755 32.8467C0.941647 33.2259 0.740982 33.6876 0.679293 34.1773C0.617603 34.6669 0.697472 35.164 0.909451 35.6097C1.12143 36.0554 1.45664 36.4311 1.87543 36.6922C2.29421 36.9534 2.77904 37.0891 3.27254 37.0833Z" fill="white"/>
</svg>
