<svg width="20" height="20" viewBox="0 0 20 20" fill="none" xmlns="http://www.w3.org/2000/svg">
<path d="M6.352 12.6377C6.485 12.9927 2.813 16.2717 4.954 18.9287C5.455 19.5497 7.155 15.9537 9.569 14.3257C10.901 13.4277 14 11.5157 14 10.4587V3.61672C14 2.34572 9.086 0.99972 5.352 0.99972C3.983 0.99972 2 9.57572 2 10.9377C2 12.3057 6.221 12.2817 6.352 12.6377ZM15 12.5427C15.658 12.5427 18 12.1427 18 9.41972V4.57172C18 1.85072 15.658 1.55072 15 1.55072C14.343 1.55072 16 2.12272 16 3.81072V10.1837C16 11.9517 14.343 12.5427 15 12.5427Z" fill="#222222"/>
</svg>
