<svg width="20" height="20" viewBox="0 0 20 20" fill="none" xmlns="http://www.w3.org/2000/svg">
<path d="M13.648 7.36204C13.515 7.00704 17.187 3.72804 15.046 1.07104C14.545 0.450036 12.845 4.04604 10.431 5.67404C9.099 6.57204 6 8.48404 6 9.54104V16.383C6 17.654 10.914 19 14.648 19C16.017 19 18 10.424 18 9.06204C18 7.69404 13.779 7.71804 13.648 7.36204ZM5 7.45704C4.342 7.45704 2 7.85704 2 10.58V15.428C2 18.149 4.342 18.449 5 18.449C5.657 18.449 4 17.877 4 16.189V9.81604C4 8.04804 5.657 7.45704 5 7.45704Z" fill="#222222"/>
</svg>
